<svg width="100%" height="100%" viewBox="0 0 663 667" xmlns="http://www.w3.org/2000/svg" xmlnsXlink="http://www.w3.org/1999/xlink">
    <g transform="matrix(0.817778,0,0,0.71875,0,0)">
        <rect x="0" y="0" width="810" height="928" fill="none" />
        <clipPath id="_clip1">
            <rect x="0" y="0" width="810" height="928" />
        </clipPath>
        <g clipPath="url(#_clip1)">
            <g transform="matrix(1.22283,0,0,1.3913,-90.2707,-223.003)">
                <path d="M73.821,533.446L235.751,533.446C253.859,610.144 322.808,667.291 405,667.291C487.192,667.291 556.141,610.144 574.249,533.446L736.179,533.446C716.543,698.866 575.653,827.315 405,827.315C234.347,827.315 93.457,698.866 73.821,533.446ZM73.917,453.351C93.913,288.317 234.623,160.284 405,160.284C575.377,160.284 716.087,288.317 736.083,453.351L574.249,453.351C556.141,376.654 487.192,319.507 405,319.507C322.808,319.507 253.859,376.654 235.751,453.351L73.917,453.351Z" fill="rgb(0,0,29)" />
            </g>
            <g transform="matrix(1.22283,0,0,1.3913,-96.19,-238.94)">
                <circle cx="409.841" cy="505.254" r="109.928" fill="rgb(0,0,29)" />
            </g>
        </g>
    </g>
</svg>
